<?xml version="1.0" standalone="no"?>
<!DOCTYPE svg PUBLIC "-//W3C//DTD SVG 20010904//EN"
 "http://www.w3.org/TR/2001/REC-SVG-20010904/DTD/svg10.dtd">
<svg version="1.0" xmlns="http://www.w3.org/2000/svg"
 width="1024.000000pt" height="1024.000000pt" viewBox="0 0 1024.000000 1024.000000"
 preserveAspectRatio="xMidYMid meet">
<metadata>
Created by potrace 1.14, written by Peter Selinger 2001-2017
</metadata>
<g transform="translate(0.000000,1024.000000) scale(0.100000,-0.100000)"
fill="#000000" stroke="none">
<path d="M0 5120 l0 -5120 4631 0 c3972 0 4630 2 4626 14 -4 10 1 13 19 11 19
-2 22 0 13 11 -6 8 -15 12 -19 9 -5 -3 -12 4 -15 16 -4 13 -13 19 -24 16 -9
-2 -22 2 -29 10 -11 11 -9 15 9 21 19 8 20 9 5 15 -10 4 -14 12 -10 18 4 8 3
9 -5 5 -6 -4 -8 -13 -4 -19 4 -7 0 -6 -10 2 -9 7 -14 18 -10 25 4 7 1 7 -7 -1
-11 -10 -11 -15 0 -28 15 -18 4 -20 -14 -2 -15 15 -29 50 -18 43 5 -3 9 1 9
10 0 9 -7 12 -19 8 -10 -3 -18 0 -18 6 0 6 -5 8 -10 5 -10 -6 -14 7 -11 32 1
8 -5 10 -16 7 -16 -5 -16 -4 -2 8 14 12 14 15 -4 33 -20 20 -20 20 -8 -3 8
-14 8 -22 1 -22 -5 0 -10 6 -10 13 0 8 -4 7 -11 -3 -9 -12 -10 -11 -6 7 3 13
0 23 -6 23 -6 0 -7 3 -4 7 4 3 -6 16 -22 27 -25 18 -27 25 -18 41 9 17 8 18
-4 8 -21 -17 -39 2 -40 42 -1 16 -3 22 -6 13 -2 -10 -9 -18 -14 -18 -6 0 -7 9
-4 20 4 11 2 20 -4 20 -6 0 -11 -6 -11 -14 0 -8 -4 -18 -10 -21 -5 -3 -7 0 -4
8 3 8 0 18 -7 23 -8 5 -10 3 -4 -6 5 -8 4 -11 -3 -6 -6 4 -8 14 -5 23 4 11 3
14 -5 9 -7 -4 -12 -2 -12 4 0 6 -4 9 -9 5 -5 -3 -13 -1 -16 5 -4 6 -1 9 7 8 8
-2 12 4 10 16 -2 10 2 23 10 27 10 7 9 9 -4 9 -9 0 -19 -6 -21 -12 -4 -10 -6
-10 -6 0 -1 7 -7 10 -14 7 -6 -4 -3 1 7 9 19 16 19 16 -3 16 -18 0 -21 4 -17
23 3 12 3 16 0 10 -8 -19 -24 -16 -17 2 3 10 0 15 -8 13 -7 -2 -14 4 -15 12 0
8 -2 21 -2 28 -1 7 -7 10 -13 6 -8 -4 -7 -9 2 -15 10 -6 10 -9 2 -9 -6 0 -10
-9 -8 -20 2 -12 0 -18 -6 -14 -5 3 -9 13 -8 22 3 33 -1 40 -23 36 -13 -2 -17
-1 -10 2 10 5 10 11 -4 31 -9 14 -12 23 -7 20 5 -4 10 0 10 8 0 13 -4 13 -26
-1 -14 -9 -21 -11 -14 -4 6 7 9 19 6 26 -4 10 0 12 11 8 9 -3 16 -1 16 6 0 6
-4 9 -9 6 -5 -3 -14 1 -21 9 -16 19 -26 19 -34 -1 -4 -11 -2 -15 7 -11 8 3 14
-1 14 -8 0 -7 -8 -10 -19 -7 -10 2 -18 5 -18 6 0 1 4 16 9 34 8 26 7 34 -4 38
-8 3 -11 12 -8 20 3 9 -1 14 -12 14 -10 0 -13 5 -9 12 5 7 3 8 -5 3 -9 -5 -9
-11 -3 -17 6 -6 8 -16 5 -23 -2 -8 4 -15 16 -17 16 -2 18 -7 11 -18 -9 -13
-13 -11 -30 10 -16 20 -19 21 -14 5 6 -16 4 -18 -6 -8 -11 10 -11 15 1 29 8
10 9 15 2 11 -12 -7 -53 28 -53 46 0 5 -7 7 -14 4 -11 -4 -13 -1 -9 10 5 14 9
13 25 -7 10 -12 18 -17 18 -10 0 22 -33 40 -49 27 -12 -10 -13 -9 -6 2 4 8 9
25 11 38 2 19 -2 23 -23 23 -22 0 -24 2 -13 15 11 13 10 14 -4 9 -9 -3 -16
-14 -16 -23 -1 -13 -2 -13 -11 3 -7 11 -8 21 -2 25 12 7 13 42 1 35 -5 -3 -5
-10 -2 -16 4 -6 -1 -8 -12 -6 -12 2 -18 11 -16 22 3 15 -1 18 -17 13 -12 -3
-25 2 -33 12 -12 14 -11 15 6 1 17 -13 18 -13 15 4 -2 11 -13 20 -24 22 -22 3
-52 39 -61 72 -5 17 -12 22 -26 19 -11 -3 -17 -3 -14 0 3 4 0 13 -7 21 -8 11
-8 14 0 9 6 -4 15 -3 18 3 4 6 3 10 -2 9 -25 -4 -43 3 -43 19 0 14 2 15 10 2
11 -18 25 -7 17 14 -4 9 -13 13 -22 10 -10 -4 -15 0 -15 10 0 10 -9 16 -22 17
-17 1 -19 2 -5 6 20 5 22 19 5 29 -7 5 -8 3 -3 -6 6 -10 4 -12 -9 -7 -10 4
-20 7 -22 7 -2 0 -4 7 -4 16 0 10 -6 14 -14 11 -8 -3 -22 1 -33 9 -10 9 -12
12 -4 8 9 -5 12 -3 7 4 -4 7 -15 12 -24 12 -15 0 -15 2 -2 10 13 9 13 10 0 10
-13 0 -13 1 0 10 12 8 10 10 -8 10 -13 0 -21 4 -17 10 3 5 13 6 23 3 9 -3 14
-3 10 2 -4 4 -20 9 -35 10 -15 0 -29 7 -31 13 -2 7 0 12 5 11 22 -4 23 3 2 32
l-22 31 -12 -23 -13 -22 -6 21 c-4 12 -13 22 -20 22 -9 0 -12 9 -8 26 3 18 8
22 15 15 6 -6 16 -11 22 -11 5 0 2 5 -7 11 -10 5 -20 8 -23 7 -8 -5 -37 41
-31 51 3 4 -6 6 -19 3 -20 -3 -24 -1 -19 12 5 12 2 15 -11 10 -15 -6 -16 -3
-10 17 7 22 7 23 -10 9 -17 -13 -18 -13 -13 1 5 12 1 15 -17 14 -18 -3 -22 1
-17 18 4 16 2 19 -11 14 -10 -4 -17 -2 -17 3 0 6 6 10 13 10 8 0 7 3 -3 9 -8
6 -18 7 -24 4 -5 -4 -7 1 -3 12 11 26 -11 49 -31 33 -10 -9 -13 -9 -9 -1 4 6
2 13 -3 15 -6 2 -12 20 -13 40 -2 35 -3 36 -31 31 -19 -4 -27 -3 -22 5 3 5 0
13 -6 15 -8 3 -6 6 5 6 20 1 22 12 5 29 -16 16 -28 15 -28 -2 0 -7 -6 -19 -13
-25 -10 -8 -14 -7 -14 4 0 8 5 11 10 8 6 -4 8 0 4 9 -3 9 -1 20 5 26 7 7 4 10
-8 9 -10 -1 -19 3 -19 10 0 7 -6 18 -14 25 -10 10 -12 10 -7 0 9 -14 -20 -17
-29 -2 -3 5 -2 10 3 10 5 0 7 11 4 25 -2 14 -8 25 -12 25 -5 0 -6 -10 -2 -22
3 -13 1 -19 -6 -15 -5 4 -9 18 -7 32 2 26 -9 34 -19 13 -3 -10 -9 -8 -19 4 -8
10 -16 17 -18 15 -2 -1 2 4 10 10 12 11 10 13 -12 13 -25 0 -27 3 -21 28 3 15
7 37 8 49 0 11 4 19 7 17 4 -2 9 5 12 16 4 15 0 20 -14 20 -13 0 -17 5 -12 16
5 13 7 13 14 2 6 -9 9 -9 9 -1 0 6 -5 15 -10 18 -6 4 -8 11 -5 16 5 7 19 78
29 144 2 11 4 20 6 20 1 0 3 9 4 20 2 11 6 40 11 65 4 25 9 52 10 60 6 34 15
152 21 260 11 196 11 211 11 370 0 207 1 319 5 610 2 216 -8 645 -17 660 -1 3
-6 52 -9 110 -4 58 -9 121 -11 140 -2 19 -7 64 -10 100 -8 80 -40 233 -68 320
-11 36 -22 68 -23 73 -1 4 -2 8 -4 10 -1 1 -3 9 -5 17 -8 38 -52 170 -110 330
-36 96 -83 228 -105 294 -23 65 -81 200 -130 300 -53 107 -108 236 -134 316
-57 172 -126 319 -232 491 -100 164 -149 258 -166 321 -10 42 -9 62 11 168 21
108 24 153 25 398 1 298 -5 351 -60 546 -29 103 -56 160 -129 271 -28 44 -74
116 -100 160 -59 96 -139 183 -209 226 -28 18 -87 55 -131 84 -168 110 -307
159 -525 185 -116 14 -354 13 -426 -2 l-59 -13 50 -6 c28 -4 71 -8 98 -8 26
-1 47 -6 47 -12 0 -5 -5 -7 -10 -4 -6 4 -19 -4 -30 -17 l-20 -23 -6 22 c-5 18
-12 22 -37 19 -17 -2 -48 2 -69 10 -36 12 -38 12 -38 -7 0 -17 -5 -19 -60 -15
-51 4 -60 2 -65 -14 -4 -12 -12 -17 -21 -13 -25 9 -133 -35 -210 -85 -84 -55
-100 -67 -159 -119 -96 -85 -165 -160 -165 -180 0 -6 -7 -16 -15 -23 -8 -7
-15 -20 -15 -30 0 -9 -9 -25 -19 -34 -10 -10 -21 -32 -24 -49 -6 -42 -24 -94
-71 -200 -9 -21 -16 -46 -16 -57 0 -10 -4 -22 -10 -25 -5 -3 -10 -16 -9 -28 0
-27 -10 -75 -21 -102 -11 -26 -19 -64 -31 -145 -17 -109 -19 -148 -24 -343 -2
-104 -8 -203 -14 -220 -5 -18 -13 -56 -16 -85 -6 -43 -17 -66 -58 -120 -28
-37 -56 -71 -63 -75 -7 -4 -46 -51 -86 -103 -39 -53 -89 -108 -110 -122 -21
-13 -38 -28 -38 -32 0 -8 -78 -108 -107 -138 -13 -12 -23 -29 -23 -39 0 -9
-10 -30 -23 -47 -38 -51 -67 -106 -67 -127 0 -10 -9 -35 -19 -55 -11 -20 -17
-42 -15 -49 3 -7 -2 -27 -11 -45 -9 -18 -13 -40 -9 -52 5 -18 -3 -75 -36 -238
-5 -25 -12 -60 -15 -77 -4 -19 -13 -33 -21 -33 -8 0 -19 -11 -24 -25 -5 -13
-18 -30 -30 -37 -15 -10 -20 -24 -21 -58 -1 -25 -3 -37 -6 -27 -8 29 -23 19
-23 -15 0 -18 -9 -48 -20 -66 -11 -18 -20 -44 -20 -58 0 -24 -3 -26 -35 -22
-31 4 -35 1 -35 -19 0 -13 -9 -43 -20 -65 -11 -23 -20 -52 -20 -65 0 -13 -4
-23 -10 -23 -5 0 -10 -13 -10 -30 0 -16 -9 -45 -19 -64 -11 -19 -21 -52 -23
-73 -2 -31 -7 -39 -26 -41 -20 -3 -23 -8 -18 -28 6 -24 5 -25 -30 -18 -30 5
-36 4 -32 -7 32 -87 32 -82 0 -117 -27 -29 -29 -36 -21 -64 9 -32 -1 -53 -41
-85 -8 -6 -12 -14 -8 -18 4 -4 -6 -21 -22 -39 -17 -17 -30 -38 -30 -47 0 -9
-11 -27 -25 -40 -13 -13 -25 -31 -25 -40 0 -8 -9 -25 -20 -37 -11 -12 -20 -30
-20 -41 0 -11 -4 -22 -9 -25 -15 -10 -21 23 -9 52 12 31 15 47 19 115 1 26 6
50 11 53 4 3 8 15 8 27 0 12 9 37 20 55 11 18 20 43 20 56 0 12 9 49 20 81 11
32 20 70 20 84 0 26 19 67 53 114 10 13 22 52 28 85 7 39 19 70 35 87 13 14
26 42 30 63 6 34 15 54 73 169 11 23 21 58 21 77 0 31 4 38 34 50 19 8 40 25
47 38 6 12 18 26 25 31 7 4 34 50 59 103 25 52 59 116 74 142 35 60 41 91 69
368 l7 72 58 46 c31 26 57 50 57 54 0 7 26 35 166 184 70 73 70 96 1 32 -86
-79 -122 -108 -129 -106 -5 1 -7 -3 -5 -10 1 -7 -5 -13 -13 -13 -8 0 -14 -7
-12 -14 1 -7 -2 -10 -7 -7 -5 3 -14 -1 -21 -9 -8 -10 -18 -11 -35 -5 -20 8
-23 6 -19 -8 5 -15 4 -15 -9 1 -15 18 -16 18 -33 -7 -12 -20 -22 -25 -38 -20
-17 5 -19 4 -9 -7 7 -7 13 -17 13 -23 0 -5 -6 -1 -14 10 -11 14 -12 22 -3 33
10 11 8 13 -13 6 -24 -7 -24 -6 -6 7 13 10 15 17 8 22 -7 4 -12 2 -12 -3 0
-18 -19 -12 -30 9 -9 16 -8 18 5 14 10 -4 15 0 15 12 0 11 -4 15 -8 9 -12 -17
-42 -17 -42 0 0 9 4 14 8 11 5 -3 9 1 9 9 0 8 -9 15 -20 15 -15 0 -18 5 -15
25 4 21 2 24 -12 20 -10 -3 -21 -1 -24 4 -4 6 -14 7 -24 4 -14 -5 -15 -4 -6 8
6 8 11 22 11 33 0 18 -1 18 -14 0 -7 -10 -13 -16 -14 -13 0 2 -2 12 -4 22 -2
9 1 15 5 12 5 -3 12 0 16 6 4 8 3 9 -4 5 -6 -4 -17 2 -24 13 -12 19 -13 19
-32 3 -20 -16 -20 -16 -7 1 11 14 11 17 0 17 -11 0 -11 2 1 10 12 7 8 10 -14
10 -26 0 -27 -2 -15 -17 13 -16 12 -17 -3 -5 -16 13 -18 28 -6 47 4 6 -2 12
-13 12 -12 1 -17 -2 -13 -10 4 -7 3 -8 -1 -4 -16 14 -14 36 3 30 12 -3 13 -2
5 4 -7 5 -17 20 -23 33 -10 24 -10 24 -6 2 2 -13 0 -22 -6 -20 -5 2 -9 7 -8
12 1 5 -4 12 -11 17 -11 6 -10 9 4 15 9 3 14 10 11 15 -3 5 -12 2 -20 -6 -9
-8 -23 -15 -32 -14 -12 0 -10 3 7 10 19 8 21 12 11 24 -7 8 -18 15 -24 15 -6
0 -4 -5 4 -11 13 -9 13 -10 0 -6 -9 2 -15 16 -15 35 0 28 -1 29 -17 16 -18
-17 -20 -2 -4 25 6 10 5 12 -2 7 -20 -12 -53 -16 -47 -5 4 5 10 7 15 4 5 -3
12 0 16 7 4 7 4 10 -1 6 -4 -4 -14 -3 -21 3 -8 6 -21 9 -29 5 -9 -3 -15 0 -15
9 0 8 -5 15 -11 15 -5 0 -7 5 -4 10 3 6 0 10 -8 10 -25 0 -27 27 -4 43 l22 16
-25 -6 c-23 -6 -24 -5 -11 10 12 15 12 17 -4 11 -12 -5 -16 -4 -11 4 3 6 1 14
-5 18 -8 4 -9 3 -5 -4 4 -7 3 -12 -3 -12 -5 0 -12 -8 -14 -17 -2 -10 -3 -6 -1
9 5 37 -5 61 -20 50 -6 -5 -22 -5 -36 -1 -16 4 -19 7 -8 8 12 1 15 6 11 17 -5
13 -7 13 -14 2 -6 -9 -9 -8 -9 8 0 11 -5 25 -11 31 -14 14 7 13 31 -2 13 -8
13 -7 1 8 -7 9 -24 17 -37 17 -12 0 -26 5 -29 11 -4 6 -12 8 -19 6 -6 -3 -12
6 -12 19 -2 23 14 28 28 9 4 -6 8 -2 8 9 0 12 -5 16 -15 12 -8 -3 -15 -1 -15
5 0 6 -4 8 -9 5 -5 -4 -12 0 -14 6 -4 10 -6 10 -6 1 -1 -10 -7 -10 -26 -1 -13
6 -22 15 -19 19 3 5 -1 9 -8 9 -7 1 -2 7 11 14 l24 14 -21 6 c-12 4 -22 12
-22 17 0 6 -6 6 -18 0 -14 -8 -18 -5 -19 12 -1 12 -7 23 -13 25 -5 2 -7 9 -3
15 4 6 0 8 -10 4 -10 -4 -16 -2 -14 6 1 7 -4 11 -11 9 -8 -1 -11 2 -7 8 3 5
13 10 21 10 12 0 12 2 2 14 -7 8 -14 10 -16 5 -2 -5 -11 -9 -19 -9 -9 0 -13 6
-9 15 3 8 1 15 -4 15 -6 0 -10 6 -10 14 0 8 -7 16 -15 20 -9 3 -15 0 -15 -10
0 -8 -4 -13 -10 -9 -5 3 -6 13 -3 22 4 9 -1 19 -10 25 -10 5 -17 18 -17 28 0
10 -4 21 -10 25 -5 3 -7 13 -4 23 5 14 4 15 -5 2 -7 -10 -11 -11 -11 -2 0 6
-5 12 -11 12 -5 0 -7 -4 -4 -10 3 -5 1 -18 -5 -27 -8 -15 -10 -13 -7 10 2 16
10 33 18 39 11 7 9 9 -8 5 -13 -3 -23 -2 -23 3 0 4 -9 10 -20 13 -11 3 -20 11
-20 19 0 11 2 11 9 -1 6 -9 11 -10 15 -2 4 6 3 11 -3 11 -6 0 -8 8 -4 18 4 11
-1 9 -17 -8 -21 -23 -22 -24 -16 -3 4 12 2 24 -4 28 -8 5 -7 12 2 23 11 14 9
14 -8 -1 -17 -14 -21 -14 -21 -3 0 17 -45 87 -52 81 -2 -3 2 -11 9 -20 10 -12
10 -15 -4 -15 -9 0 -16 8 -16 20 0 11 -4 20 -9 20 -6 0 -8 9 -6 19 2 14 -1 18
-10 15 -8 -3 -11 -13 -8 -22 4 -15 3 -15 -6 -2 -6 9 -7 18 -1 24 13 13 13 29
0 21 -6 -3 -10 3 -10 14 0 15 -5 19 -22 16 -12 -3 -27 0 -34 6 -7 6 -19 7 -25
3 -8 -4 -9 -3 -5 4 4 7 20 10 39 7 22 -4 28 -2 17 4 -8 5 -17 8 -21 5 -4 -2
-13 4 -20 13 -12 14 -12 16 1 8 13 -8 13 -7 0 9 -13 17 -14 17 -20 0 -5 -12
-9 -14 -14 -6 -4 7 -4 17 0 23 4 8 0 9 -15 4 -16 -5 -20 -3 -15 10 4 9 3 15
-2 14 -21 -4 -35 2 -29 11 3 6 2 10 -4 10 -5 0 -9 9 -8 19 1 16 5 17 25 10 14
-6 21 -5 17 1 -3 5 -22 12 -41 16 -24 4 -32 9 -23 15 7 4 17 5 21 3 4 -3 5 2
2 10 -5 13 -9 13 -32 -1 l-27 -17 20 23 20 24 -26 -6 c-22 -6 -28 -1 -46 33
-15 27 -18 40 -10 44 8 3 8 5 -1 5 -7 1 -10 6 -6 13 4 6 3 8 -4 5 -11 -8 -11
-25 1 -44 6 -9 3 -11 -7 -7 -15 6 -20 20 -19 51 1 8 -7 11 -23 7 -20 -5 -22
-3 -18 20 3 17 0 26 -8 26 -10 0 -10 2 1 9 8 5 9 11 3 15 -6 3 -13 2 -17 -4
-4 -6 -11 -8 -16 -4 -6 3 -5 12 3 22 8 10 9 13 1 9 -6 -4 -14 -3 -18 2 -3 5
-14 8 -24 6 -17 -3 -19 1 -15 31 3 23 1 33 -6 29 -6 -4 -8 -10 -6 -14 3 -4 1
-13 -4 -21 -7 -11 -12 -12 -20 -4 -9 9 -9 14 -1 18 6 4 11 17 11 29 0 18 -2
19 -10 7 -8 -13 -10 -13 -10 2 0 9 6 18 13 21 9 3 9 8 -2 18 -8 8 -11 9 -8 4
3 -7 -8 -11 -30 -11 -20 0 -31 2 -25 4 7 2 12 8 12 14 0 6 -7 8 -15 5 -8 -4
-17 -1 -21 6 -4 7 -4 9 1 5 4 -4 14 -3 22 3 8 7 13 8 13 1 0 -5 8 -13 17 -16
14 -6 14 -4 -2 14 -15 16 -27 20 -50 16 -25 -5 -27 -4 -11 6 18 10 17 12 -10
24 l-29 12 30 2 30 1 -25 13 c-14 8 -28 12 -32 10 -11 -7 -10 4 1 25 7 13 6
18 -4 18 -7 0 -11 -7 -7 -15 4 -11 1 -13 -8 -7 -10 6 -12 4 -6 -10 5 -15 4
-16 -9 -5 -13 11 -13 15 -3 22 10 7 9 12 -6 23 -10 8 -23 12 -27 9 -5 -3 -9 0
-9 5 0 6 -6 11 -14 11 -8 0 -13 7 -12 15 4 26 17 30 23 7 3 -12 10 -19 15 -16
5 3 2 14 -8 25 -9 10 -14 19 -9 19 4 0 2 6 -4 13 -6 8 -7 18 -3 22 4 5 1 5 -6
1 -7 -5 -11 -10 -8 -14 8 -7 -27 -31 -36 -26 -5 3 -8 10 -8 15 0 6 4 8 9 5 4
-3 6 6 3 20 -3 18 -10 24 -22 21 -9 -2 -25 2 -35 9 -10 8 -14 14 -8 14 6 0 13
6 16 14 4 10 -2 13 -24 12 l-31 -2 24 17 23 18 -25 -5 c-19 -4 -22 -3 -10 5 8
5 11 13 7 17 -3 4 -13 1 -22 -6 -18 -15 -20 1 -3 18 9 9 9 12 0 12 -6 0 -16
-8 -22 -17 -9 -16 -10 -15 -5 5 4 13 2 22 -4 22 -8 0 -7 6 1 20 15 24 9 31
-39 37 -21 3 -42 9 -47 14 -5 5 1 6 16 4 17 -3 25 0 25 11 0 8 -6 13 -14 10
-26 -10 -42 5 -36 34 5 25 3 28 -16 23 -11 -3 -21 -9 -21 -14 0 -5 8 -5 17 -2
15 6 16 5 3 -9 -13 -13 -16 -14 -23 -2 -4 8 -3 22 2 33 8 15 7 20 -5 25 -23 9
-31 7 -15 -3 10 -7 7 -9 -12 -8 -15 1 -29 7 -31 14 -3 7 1 10 7 7 8 -3 13 5
14 18 0 13 -1 17 -4 10 -4 -10 -10 -10 -28 2 -14 10 -25 12 -29 5 -2 -5 -3 -4
-2 3 2 7 9 12 15 11 6 -2 11 2 11 7 0 6 -5 10 -11 10 -5 0 -7 6 -4 13 4 6 0 4
-8 -5 -8 -10 -20 -18 -28 -18 -10 1 -9 4 4 11 25 15 23 43 -2 29 -14 -7 -22
-7 -27 2 -4 6 -3 8 3 5 6 -4 16 0 23 8 11 13 10 14 -6 9 -10 -4 -16 -4 -12 0
3 4 -3 17 -14 28 -15 15 -17 22 -8 28 10 6 10 12 0 26 -9 15 -10 15 -6 2 2 -9
-2 -22 -10 -28 -11 -10 -19 -9 -39 4 -25 16 -33 36 -16 36 11 0 8 26 -4 37 -4
5 -4 1 0 -7 8 -13 6 -13 -8 -1 -13 10 -14 17 -6 35 10 17 9 19 -2 9 -17 -17
-31 -16 -55 1 -19 14 -19 15 1 13 12 -1 20 5 22 18 1 11 0 14 -3 8 -3 -7 -17
-13 -30 -13 -15 0 -23 4 -19 10 4 6 12 7 18 3 16 -9 -24 40 -42 51 -10 6 -10
10 -1 16 8 5 7 9 -5 13 -9 4 -13 3 -10 -3 3 -6 -1 -10 -10 -10 -9 0 -13 5 -10
10 3 6 2 10 -4 10 -5 0 -12 -6 -14 -12 -3 -8 -6 -6 -6 5 -1 9 5 17 12 17 6 0
4 5 -6 11 -9 5 -21 8 -26 5 -5 -3 -11 4 -14 16 -4 13 -1 26 6 30 9 6 9 8 -1 8
-7 0 -10 5 -6 11 4 7 0 9 -14 5 -13 -4 -22 -1 -26 9 -3 9 -2 13 4 10 6 -3 10
0 10 8 0 11 -7 13 -22 10 -23 -5 -23 -5 -3 10 18 14 18 16 2 13 -10 -1 -22 -9
-27 -16 -7 -11 -12 -8 -21 13 l-12 27 -149 0 -148 0 0 -5120z m477 4888 c-3
-8 -6 -5 -6 6 -1 11 2 17 5 13 3 -3 4 -12 1 -19z m53 -22 c0 -2 -7 -7 -16 -10
-8 -3 -12 -2 -9 4 6 10 25 14 25 6z m160 -186 c0 -5 -5 -10 -11 -10 -5 0 -7 5
-4 10 3 6 8 10 11 10 2 0 4 -4 4 -10z m154 -198 c3 -5 -1 -9 -9 -9 -8 0 -15 4
-15 9 0 4 4 8 9 8 6 0 12 -4 15 -8z m151 -121 c-4 -3 -12 -6 -18 -6 -7 -1 -11
-7 -9 -15 3 -12 1 -13 -10 -2 -11 11 -10 16 6 27 18 14 45 10 31 -4z m4232
-193 c-3 -8 -6 -5 -6 6 -1 11 2 17 5 13 3 -3 4 -12 1 -19z m-4100 6 c-3 -3
-12 -4 -19 -1 -8 3 -5 6 6 6 11 1 17 -2 13 -5z m4153 -4 c0 -5 -4 -10 -10 -10
-5 0 -10 5 -10 10 0 6 5 10 10 10 6 0 10 -4 10 -10z m128 -22 c-6 -18 -28 -21
-28 -4 0 9 7 16 16 16 9 0 14 -5 12 -12z m97 -18 c3 -5 1 -10 -4 -10 -6 0 -11
5 -11 10 0 6 2 10 4 10 3 0 8 -4 11 -10z m53 -28 c2 -7 -3 -12 -12 -12 -9 0
-16 7 -16 16 0 17 22 14 28 -4z m160 -115 c24 -10 29 -16 21 -27 -8 -13 -11
-12 -20 3 -6 10 -22 22 -35 27 -13 5 -24 15 -24 21 0 8 4 8 13 1 7 -7 27 -17
45 -25z m95 -39 c18 -18 50 -46 70 -63 20 -16 44 -43 52 -60 18 -35 26 -48 81
-130 23 -34 48 -83 57 -109 16 -47 16 -47 -6 -44 -12 1 -28 -1 -35 -6 -20 -12
-25 -1 -11 22 10 16 9 23 -9 42 -19 20 -25 22 -47 12 -33 -15 -35 -15 -35 1 0
8 10 19 23 25 12 6 16 11 10 11 -7 1 -13 7 -13 14 0 26 -25 67 -42 67 -16 0
-16 2 0 30 16 29 16 31 0 41 -10 5 -18 17 -18 25 0 8 -7 17 -15 20 -8 4 -15
12 -15 20 0 8 -7 14 -15 14 -8 0 -15 -5 -15 -11 0 -8 -4 -9 -13 0 -8 6 -16 9
-19 6 -2 -3 -3 9 0 25 4 31 -6 38 -25 19 -15 -15 -22 1 -16 34 7 35 15 34 56
-5z m-1339 -298 c6 0 18 -20 25 -45 7 -25 18 -45 23 -45 5 0 8 -15 6 -32 -2
-27 0 -32 15 -30 9 2 17 -1 17 -7 0 -38 -25 -173 -39 -215 -10 -28 -23 -69
-30 -91 -23 -76 -33 -95 -50 -95 -13 0 -13 -2 -2 -9 21 -13 5 -46 -45 -93 -41
-38 -56 -68 -35 -68 11 0 41 -79 41 -109 0 -18 4 -21 22 -16 18 6 20 4 13 -11
-16 -40 -14 -51 20 -97 41 -55 103 -87 168 -87 23 0 58 -5 77 -10 32 -9 278
-16 325 -8 12 2 19 -2 18 -9 -2 -7 2 -13 7 -13 6 0 10 4 10 8 0 9 85 36 97 31
4 -2 7 -7 6 -11 -2 -5 2 -8 7 -8 6 0 10 9 10 20 0 23 32 43 54 34 11 -4 16 0
16 15 0 11 10 26 23 32 33 18 117 107 117 124 0 8 -9 15 -20 15 -23 0 -55 54
-51 86 1 12 -5 24 -14 28 -9 3 -13 11 -9 17 3 6 2 21 -3 32 -6 12 -18 46 -28
76 -17 52 -17 55 0 67 15 11 17 23 12 73 -5 46 -2 76 14 127 26 84 39 105 92
140 22 16 53 42 67 57 21 24 38 31 104 40 l79 11 36 -42 c20 -23 42 -42 49
-42 6 0 15 -12 18 -26 5 -21 11 -24 29 -20 37 9 54 -2 53 -36 -1 -19 5 -34 15
-40 10 -5 17 -15 17 -22 0 -7 14 -26 30 -43 24 -25 29 -37 24 -57 -4 -16 -1
-35 8 -49 9 -13 14 -40 12 -70 -2 -36 1 -49 13 -54 14 -5 13 -7 -1 -15 -9 -5
-13 -14 -10 -20 4 -6 1 -14 -6 -18 -8 -5 -10 -15 -5 -26 4 -11 8 -35 9 -54 1
-28 5 -34 20 -32 15 3 17 -1 11 -20 -4 -13 -9 -36 -12 -53 -3 -16 -12 -37 -19
-45 -18 -21 -44 -96 -44 -126 0 -13 -6 -38 -14 -56 -8 -18 -20 -52 -27 -76 -8
-26 -24 -51 -41 -63 -15 -11 -28 -26 -28 -33 0 -17 -83 -57 -175 -86 -38 -12
-78 -29 -88 -38 -11 -9 -24 -17 -30 -17 -7 0 -29 -8 -49 -17 -41 -18 -50 -38
-18 -38 10 0 28 -9 38 -20 18 -20 18 -20 40 10 12 16 22 33 22 38 0 15 48 20
88 11 20 -4 67 -8 104 -8 37 1 71 -2 76 -5 13 -8 21 -66 10 -72 -14 -9 -9 -24
9 -24 9 0 31 5 50 12 37 13 49 7 38 -19 -5 -10 -7 -25 -7 -33 1 -8 -12 -25
-30 -37 -26 -19 -29 -23 -15 -29 10 -3 23 -1 31 5 13 11 46 5 46 -9 0 -12 -83
-90 -97 -90 -8 0 -17 -8 -21 -19 -4 -10 -35 -41 -69 -70 -35 -28 -63 -60 -63
-70 0 -10 -13 -31 -30 -47 -16 -16 -30 -33 -30 -39 0 -11 -64 -65 -78 -65 -5
0 -23 -7 -41 -16 -22 -11 -30 -21 -26 -32 7 -25 -37 -72 -69 -72 -19 0 -26 -5
-26 -20 0 -10 -8 -24 -17 -29 -16 -9 -16 -12 -3 -21 23 -15 29 -12 42 15 13
30 58 36 58 8 0 -21 -42 -73 -59 -73 -6 0 -21 -16 -33 -35 -13 -19 -28 -33
-35 -31 -19 8 -38 -51 -25 -79 11 -23 9 -25 -24 -31 -19 -3 -46 -4 -61 -1 -34
6 -74 -18 -66 -41 3 -9 13 -25 21 -35 10 -11 12 -21 6 -27 -17 -17 -56 46 -50
78 3 15 2 33 -3 41 -12 19 -34 3 -27 -21 5 -20 -26 -57 -49 -58 -5 0 -19 -12
-31 -27 l-21 -27 -18 28 c-16 23 -16 29 -4 37 8 5 24 7 37 4 15 -4 22 -1 22
10 0 14 -16 19 -50 16 -25 -3 -82 -70 -76 -89 5 -13 3 -12 -9 2 -23 30 -18 47
15 59 31 12 37 21 20 32 -16 10 -1 25 26 25 25 0 32 14 14 25 -6 4 -10 16 -8
27 5 31 -24 45 -59 28 -15 -8 -31 -16 -35 -18 -5 -2 -8 5 -8 15 0 10 -9 36
-20 58 -11 22 -16 43 -11 49 4 6 8 28 8 49 1 31 -3 38 -23 43 -15 4 -23 12
-22 23 2 11 -6 17 -27 19 -47 6 -58 31 -25 59 31 27 24 34 -32 31 -51 -3 -53
-2 -56 25 -3 21 -10 29 -32 33 -22 5 -29 13 -32 35 -3 16 -2 28 1 26 3 -2 22
-11 42 -20 20 -9 39 -26 42 -38 7 -25 32 -20 32 7 0 12 8 20 20 22 16 2 25 -7
38 -36 9 -21 17 -46 17 -55 0 -10 5 -17 10 -17 6 0 10 5 10 10 0 6 12 10 26
10 19 0 25 -4 21 -14 -6 -16 26 -32 43 -21 5 3 23 -9 40 -27 25 -27 29 -39 25
-65 -5 -26 -2 -33 10 -33 10 0 15 10 15 33 0 18 4 37 10 43 5 5 7 26 4 46 -5
28 -13 39 -35 49 -25 10 -32 9 -49 -6 -19 -17 -20 -16 -32 30 -7 26 -21 51
-30 56 -10 5 -18 16 -18 24 0 8 -6 15 -12 16 -7 0 -3 4 10 9 12 5 22 14 22 20
0 13 -27 13 -35 0 -3 -5 -20 -10 -37 -10 -25 0 -28 2 -18 15 6 8 9 23 5 34 -8
28 27 37 60 15 28 -18 41 -14 32 11 -4 9 -19 15 -36 15 -31 0 -49 14 -31 25 5
3 10 22 10 42 0 26 -5 36 -19 40 -14 3 -19 13 -18 31 2 20 -2 26 -14 24 -16
-2 -55 45 -45 55 8 9 27 -8 20 -19 -4 -6 1 -8 14 -4 15 5 22 2 27 -14 4 -14
15 -20 36 -20 34 0 48 23 31 51 -17 26 -15 56 3 63 8 3 15 1 15 -4 0 -6 14
-22 30 -37 33 -29 38 -43 15 -43 -8 0 -15 -7 -15 -15 0 -8 5 -15 11 -15 7 0 9
-9 5 -23 -5 -21 -2 -24 23 -24 24 0 28 4 29 29 0 18 -4 28 -14 28 -20 0 -18 9
7 28 23 20 18 48 -12 57 -31 10 -21 26 15 23 18 -1 45 6 59 15 30 19 85 22
120 6 18 -8 36 -7 73 4 49 14 49 14 20 22 -20 6 -31 4 -34 -3 -5 -16 -34 -15
-57 2 -20 14 -96 11 -128 -6 -12 -6 -23 -6 -32 2 -8 6 -37 13 -65 14 -28 1
-56 8 -62 14 -7 7 -31 12 -55 12 -24 0 -43 4 -43 9 0 4 -32 12 -71 15 -82 8
-189 62 -189 96 0 45 -30 66 -57 39 -7 -7 -20 -8 -34 -3 -23 7 -23 8 9 16 17
5 32 13 32 18 0 14 -44 12 -58 -2 -8 -8 -15 -8 -27 2 -14 12 -14 15 -2 28 13
12 11 18 -15 44 -24 25 -32 28 -39 17 -5 -8 -9 -17 -9 -21 0 -14 -30 -9 -30 5
-1 15 -56 77 -70 77 -6 0 -13 8 -17 18 -3 9 -16 31 -27 47 -49 67 -60 160 -32
265 10 39 14 80 11 101 -7 40 13 238 25 254 4 6 11 25 15 44 4 19 13 40 19 47
45 49 109 122 151 175 28 34 65 68 83 76 17 7 32 18 32 24 0 6 7 8 16 5 9 -3
21 -6 28 -6z m1594 -170 c17 -27 52 -27 52 1 0 15 4 19 16 15 9 -3 18 -6 20
-6 12 0 2 -41 -11 -46 -8 -4 -15 -15 -15 -26 0 -31 -44 -20 -48 12 -2 14 -15
35 -30 47 -18 15 -22 23 -12 23 8 0 21 -9 28 -20z m122 -88 c0 -18 -47 -48
-57 -38 -10 9 8 26 28 26 10 0 19 7 19 15 0 8 2 15 5 15 3 0 5 -8 5 -18z
m-4323 -64 c-3 -8 -6 -5 -6 6 -1 11 2 17 5 13 3 -3 4 -12 1 -19z m4340 -40
c-3 -7 -5 -2 -5 12 0 14 2 19 5 13 2 -7 2 -19 0 -25z m-27 -48 c0 -11 -4 -20
-9 -20 -11 0 -22 26 -14 34 12 12 23 5 23 -14z m-4205 -20 c-3 -5 -1 -10 4
-10 6 0 11 -9 11 -20 0 -11 -4 -20 -10 -20 -5 0 -7 6 -4 14 3 8 0 17 -5 21
-11 6 -6 25 5 25 3 0 2 -4 -1 -10z m4205 -20 c0 -5 -5 -10 -11 -10 -5 0 -7 5
-4 10 3 6 8 10 11 10 2 0 4 -4 4 -10z m40 -130 c12 -8 9 -10 -12 -10 -16 0
-28 5 -28 10 0 13 20 13 40 0z m-1267 -17 c2 -10 8 -26 12 -37 6 -14 4 -17 -6
-14 -17 6 -49 -44 -49 -77 0 -13 -8 -40 -17 -60 -13 -27 -23 -35 -44 -35 -23
0 -26 3 -22 23 3 12 9 27 13 32 4 6 4 30 1 55 -7 44 4 100 19 100 4 0 13 -7
20 -15 20 -24 40 -17 47 15 6 33 18 39 26 13z m1320 -179 c-2 -54 -5 -146 -7
-204 -3 -118 -12 -178 -29 -199 -8 -9 -13 -70 -15 -166 l-4 -153 51 -56 c40
-45 51 -63 51 -90 0 -26 10 -46 40 -81 23 -26 53 -70 68 -97 15 -28 40 -73 55
-102 16 -28 37 -74 48 -101 10 -28 32 -71 47 -96 16 -24 31 -64 35 -88 3 -23
16 -59 30 -79 13 -20 29 -57 36 -82 16 -59 88 -207 118 -243 12 -16 23 -37 23
-48 0 -10 11 -42 24 -71 13 -29 30 -73 36 -98 7 -25 20 -65 30 -90 22 -58 40
-107 50 -145 15 -52 56 -159 77 -200 11 -22 26 -74 33 -115 6 -41 23 -100 37
-130 37 -79 74 -255 84 -400 5 -69 14 -177 20 -240 11 -128 15 -792 5 -809 -4
-6 -11 -158 -16 -338 -10 -341 -34 -630 -69 -808 -25 -125 -35 -165 -49 -192
-7 -12 -12 -30 -12 -40 0 -11 -10 -41 -23 -69 -43 -91 -57 -125 -57 -139 0 -8
-11 -38 -24 -67 -13 -29 -32 -78 -41 -108 -12 -35 -34 -72 -62 -102 -37 -40
-43 -53 -43 -90 0 -33 -9 -57 -36 -98 -20 -30 -42 -67 -50 -83 -9 -16 -42 -55
-75 -88 l-61 -59 -86 0 c-78 0 -93 -3 -145 -31 -49 -26 -63 -29 -85 -20 -46
17 -109 23 -131 12 -11 -6 -21 -21 -23 -33 -2 -16 -11 -24 -28 -26 -14 -2 -30
-8 -36 -13 -14 -11 -124 -9 -124 2 0 10 -1 10 56 14 52 4 84 14 84 26 0 5 -10
9 -22 9 -22 1 -22 1 -4 12 15 8 21 8 24 0 2 -7 11 -12 19 -12 9 0 13 3 10 7
-14 14 17 33 53 33 32 0 44 6 72 39 18 21 43 44 56 50 18 10 21 15 12 26 -23
28 0 38 68 32 36 -4 68 -11 72 -17 8 -13 40 -2 40 14 -1 13 -24 46 -34 46 -3
0 -6 -7 -6 -15 0 -8 -9 -15 -20 -15 -25 0 -26 18 -2 36 16 12 16 14 0 41 -9
15 -30 32 -47 38 -17 5 -31 13 -31 17 0 4 -4 8 -10 8 -5 0 -10 -8 -10 -18 0
-12 11 -21 33 -27 22 -7 33 -17 35 -32 4 -28 -21 -31 -46 -7 -14 15 -17 15
-30 -2 -13 -17 -13 -16 -7 13 6 30 3 35 -29 54 -35 20 -41 38 -22 67 4 7 3 19
-3 26 -6 6 -9 25 -8 42 2 23 -2 30 -20 32 -13 2 -23 10 -23 18 0 16 12 18 26
4 6 -6 18 -8 27 -4 15 5 18 12 17 42 0 4 -10 7 -23 7 -16 0 -23 7 -25 25 -4
30 -17 45 -40 45 -12 0 -18 10 -20 38 -2 26 -10 42 -28 53 -19 13 -24 25 -24
55 0 39 -13 52 -24 24 -3 -8 -10 -15 -17 -15 -8 0 -8 60 0 87 1 0 15 6 31 12
20 7 30 17 30 30 0 14 6 21 20 21 11 0 24 8 27 17 4 10 11 21 17 25 6 4 4 9
-7 14 -17 6 -23 35 -10 47 3 4 14 0 23 -8 22 -20 40 -1 37 40 -1 22 3 30 17
33 10 2 22 -1 25 -7 10 -16 51 -1 51 19 0 19 19 30 50 30 13 0 20 9 22 27 2
23 9 29 38 33 45 8 60 17 54 34 -3 7 2 16 12 20 15 6 15 8 -1 32 -21 32 -13
54 18 54 14 0 30 7 37 15 7 8 26 15 42 15 16 0 36 7 44 15 9 8 27 15 42 15 50
0 107 26 110 50 4 24 -14 76 -34 100 -7 8 -16 29 -20 45 -4 17 -17 46 -30 65
-12 19 -32 67 -45 105 -12 39 -26 78 -30 87 -5 9 -11 46 -15 82 -4 36 -11 66
-15 66 -5 0 -9 9 -9 20 0 10 -5 31 -12 45 -8 18 -8 31 0 48 18 38 20 65 6 84
-7 10 -14 27 -14 38 0 12 -4 25 -10 31 -5 5 -15 37 -21 69 -6 33 -17 63 -24
68 -9 5 -14 28 -14 72 0 36 -2 69 -6 75 -3 5 1 20 10 34 15 23 15 27 -4 65
-12 23 -21 59 -21 85 0 25 -4 48 -10 51 -14 8 -13 36 1 32 6 -1 14 4 16 11 3
6 0 12 -6 12 -12 0 -16 136 -3 143 7 5 -1 127 -16 237 -7 52 -6 72 6 99 20 44
20 306 -1 338 -4 6 -4 19 0 29 5 13 3 16 -10 11 -14 -5 -17 0 -17 36 0 23 -7
52 -15 64 -8 12 -12 28 -9 37 4 10 0 18 -10 22 -25 10 -66 101 -66 147 0 25
-7 48 -17 59 -10 11 -34 51 -53 90 -30 61 -39 72 -61 73 -30 1 -82 52 -74 72
2 8 -2 25 -11 38 -16 25 -26 77 -25 133 1 18 -6 40 -15 49 -8 9 -13 25 -10 36
2 10 -1 28 -7 38 -9 15 -9 23 0 38 7 11 10 36 7 58 -5 37 -12 55 -39 118 -8
18 -12 46 -8 70 13 94 0 169 -32 183 -25 12 -39 55 -37 118 1 35 -3 43 -24 53
-14 6 -31 11 -39 11 -8 0 -15 7 -15 15 0 9 9 15 21 15 17 0 19 3 10 14 -9 11
-9 16 1 22 9 6 5 10 -12 14 -22 5 -25 11 -22 46 2 21 8 44 13 51 7 7 6 14 -1
18 -6 4 -9 19 -7 33 2 15 2 22 0 15 -2 -7 -13 -15 -24 -18 -26 -9 -24 -31 4
-40 20 -6 20 -8 3 -12 -10 -3 -21 0 -25 5 -3 5 -17 12 -31 13 -31 5 -30 22 2
29 13 4 24 15 26 27 2 11 12 23 23 26 19 5 27 27 9 27 -21 0 -8 23 35 66 25
24 54 48 65 54 11 6 23 23 26 38 4 15 20 53 36 85 24 45 35 57 54 57 24 0 32
14 14 25 -11 7 3 36 35 74 14 17 16 25 8 28 -18 7 -16 30 3 37 14 5 14 9 3 23
-12 15 -12 16 7 11 17 -4 25 2 39 34 19 45 9 72 -19 48 -17 -13 -46 -7 -46 9
0 6 16 13 35 17 45 8 54 24 27 42 -28 18 -28 30 0 34 25 3 36 26 16 32 -55 17
-55 16 -34 31 28 21 47 64 40 91 -4 13 -2 30 4 37 19 22 26 88 11 98 -11 6
-11 11 -1 21 17 17 15 25 -10 33 l-23 8 23 4 c33 6 24 36 -13 44 -30 6 -22 14
20 21 15 2 21 13 24 38 4 35 4 35 12 -11 4 -25 5 -90 2 -145z m-4125 148 c6
-18 -15 -14 -22 4 -4 10 -1 14 6 12 6 -2 14 -10 16 -16z m4062 8 c0 -5 -7 -10
-15 -10 -8 0 -15 5 -15 10 0 6 7 10 15 10 8 0 15 -4 15 -10z m-3845 -260 c3
-5 -1 -10 -10 -10 -10 0 -14 -5 -9 -12 5 -10 4 -10 -6 -1 -7 6 -9 16 -6 22 9
14 23 14 31 1z m1940 -280 c3 -5 2 -10 -4 -10 -5 0 -13 5 -16 10 -3 6 -2 10 4
10 5 0 13 -4 16 -10z m135 -100 c12 -8 9 -10 -13 -10 -16 0 -26 4 -22 10 8 12
16 12 35 0z m520 -190 c0 -5 -7 -10 -16 -10 -8 0 -12 5 -9 10 3 6 10 10 16 10
5 0 9 -4 9 -10z m-1980 -124 c0 -2 -7 -7 -16 -10 -8 -3 -12 -2 -9 4 6 10 25
14 25 6z m1740 -75 c-12 -23 -40 -29 -40 -9 0 6 10 23 23 36 17 19 23 21 25 8
2 -8 -2 -24 -8 -35z m27 -23 c-3 -8 -6 -5 -6 6 -1 11 2 17 5 13 3 -3 4 -12 1
-19z m-17 -63 c-12 -15 -40 -21 -40 -9 0 4 10 15 22 26 25 21 38 7 18 -17z
m-155 -95 c-3 -5 -12 -10 -20 -10 -8 0 -17 5 -20 10 -4 6 5 10 20 10 15 0 24
-4 20 -10z m145 -15 c0 -16 -27 -32 -37 -21 -7 7 16 36 28 36 5 0 9 -7 9 -15z
m958 -117 c-6 -18 -28 -21 -28 -4 0 9 7 16 16 16 9 0 14 -5 12 -12z m-1213
-18 c3 -5 1 -10 -4 -10 -6 0 -11 5 -11 10 0 6 2 10 4 10 3 0 8 -4 11 -10z
m333 -452 c-6 -16 -33 -22 -56 -13 -14 5 -14 7 -2 15 22 14 62 12 58 -2z m-38
-78 c0 -5 -4 -10 -10 -10 -5 0 -10 5 -10 10 0 6 5 10 10 10 6 0 10 -4 10 -10z
m336 -21 c3 -6 1 -16 -4 -21 -13 -13 -45 8 -36 23 7 12 31 11 40 -2z m96 -34
c0 -5 -5 -11 -11 -13 -6 -2 -11 4 -11 13 0 9 5 15 11 13 6 -2 11 -8 11 -13z
m-252 -15 c0 -5 -7 -10 -15 -10 -8 0 -15 5 -15 10 0 6 7 10 15 10 8 0 15 -4
15 -10z m270 -54 c-14 -14 -24 0 -16 21 6 15 8 15 16 3 6 -9 5 -19 0 -24z
m-362 -34 c2 -7 -3 -12 -12 -12 -9 0 -16 7 -16 16 0 17 22 14 28 -4z m-258
-138 c0 -8 -5 -12 -10 -9 -6 4 -8 11 -5 16 9 14 15 11 15 -7z m100 -163 c0
-12 -20 -25 -27 -18 -7 7 6 27 18 27 5 0 9 -4 9 -9z m50 -55 c0 -3 -4 -8 -10
-11 -5 -3 -10 -1 -10 4 0 6 5 11 10 11 6 0 10 -2 10 -4z m-277 -45 l-6 -25 -9
23 c-9 25 -1 48 13 34 5 -5 6 -19 2 -32z m153 -17 c-4 -15 0 -34 10 -49 15
-23 15 -25 0 -25 -9 0 -16 5 -16 10 0 6 -9 10 -20 10 -13 0 -18 -5 -14 -15 3
-8 -1 -22 -10 -30 -14 -15 -16 -15 -16 -1 0 9 -7 16 -15 16 -8 0 -15 -4 -15
-10 0 -5 -4 -10 -10 -10 -27 0 16 56 61 81 13 7 18 16 14 26 -6 17 13 35 28
26 5 -3 6 -16 3 -29z m-183 -6 c7 -23 1 -38 -14 -38 -5 0 -9 14 -9 30 0 35 15
40 23 8z m75 -25 c-2 -17 -9 -28 -18 -28 -8 -1 -26 -7 -39 -14 -19 -11 -23
-11 -19 1 2 7 14 17 26 23 11 5 23 17 25 27 8 29 29 21 25 -9z m492 17 c0 -5
-7 -10 -15 -10 -8 0 -15 5 -15 10 0 6 7 10 15 10 8 0 15 -4 15 -10z m-590 -70
c0 -5 -5 -10 -11 -10 -5 0 -7 5 -4 10 3 6 8 10 11 10 2 0 4 -4 4 -10z m250
-21 c0 -11 -4 -17 -10 -14 -5 3 -10 13 -10 21 0 8 5 14 10 14 6 0 10 -9 10
-21z m40 -31 c0 -9 -4 -20 -10 -23 -6 -4 -10 9 -10 32 0 28 3 34 10 23 5 -8
10 -23 10 -32z m-277 -23 c-3 -9 -8 -14 -10 -11 -3 3 -2 9 2 15 9 16 15 13 8
-4z m87 -1 c0 -9 -5 -14 -12 -12 -18 6 -21 28 -4 28 9 0 16 -7 16 -16z m110
-34 c0 -5 -4 -10 -10 -10 -5 0 -10 5 -10 10 0 6 5 10 10 10 6 0 10 -4 10 -10z
m-72 -35 c3 -16 1 -18 -9 -8 -10 10 -16 9 -30 -3 -18 -16 -39 -12 -39 7 0 12
39 29 60 26 8 -1 16 -11 18 -22z m142 15 c0 -5 -4 -10 -10 -10 -5 0 -10 5 -10
10 0 6 5 10 10 10 6 0 10 -4 10 -10z m990 -201 c0 -24 -23 -21 -28 4 -2 10 3
17 12 17 10 0 16 -9 16 -21z m-1100 -86 c0 -7 -4 -13 -10 -13 -5 0 -10 12 -10
28 0 21 2 24 10 12 5 -8 10 -21 10 -27z m-2014 -330 c-11 -11 -19 6 -11 24 8
17 8 17 12 0 3 -10 2 -21 -1 -24z m-25 -23 c13 0 11 -44 -2 -57 -6 -6 -13 -42
-15 -80 -1 -37 -5 -79 -7 -93 -3 -14 -5 -37 -6 -51 -1 -19 -8 -29 -24 -33 -23
-5 -24 -8 -20 -108 2 -57 9 -118 14 -136 9 -26 8 -37 -3 -50 -10 -12 -15 -46
-16 -109 -1 -60 -7 -103 -16 -122 -10 -18 -14 -49 -12 -85 2 -31 0 -56 -5 -56
-4 0 -9 -8 -11 -17 -2 -10 -7 74 -11 186 -4 142 -3 209 5 218 6 7 8 13 4 13
-4 0 2 17 13 38 15 31 18 55 15 149 -2 62 0 115 5 117 4 3 9 40 10 83 2 100
15 149 41 156 11 3 20 13 20 22 0 9 -4 13 -10 10 -5 -3 -10 0 -10 9 0 19 24
27 28 9 2 -7 8 -13 13 -13z m59 -220 c0 -5 -4 -10 -10 -10 -5 0 -10 5 -10 10
0 6 5 10 10 10 6 0 10 -4 10 -10z m-154 -853 c-3 -12 -6 -29 -6 -37 0 -13 -2
-13 -9 -1 -10 15 -15 -4 -25 -94 -2 -22 -7 -53 -11 -70 -3 -16 -8 -40 -11 -53
-2 -13 -9 -20 -14 -17 -6 3 -10 55 -10 115 0 102 1 109 25 131 13 13 25 34 25
47 0 20 3 21 21 11 15 -8 19 -17 15 -32z m-46 -312 c0 -14 4 -25 10 -25 5 0
13 -12 16 -27 4 -16 13 -37 20 -48 23 -33 18 -45 -15 -34 -35 12 -42 26 -50
102 -5 43 -4 57 6 57 7 0 13 -11 13 -25z m2210 5 c0 -5 -4 -10 -10 -10 -5 0
-10 5 -10 10 0 6 5 10 10 10 6 0 10 -4 10 -10z m-1953 -207 c-10 -10 -97 -21
-97 -12 0 4 8 10 18 12 27 7 86 8 79 0z m2433 -304 c0 -11 -4 -18 -10 -14 -5
3 -7 12 -3 20 7 21 13 19 13 -6z m70 -104 c0 -8 -9 -15 -20 -15 -22 0 -27 15
-7 23 21 9 27 7 27 -8z m-1470 -45 c0 -5 -5 -10 -11 -10 -5 0 -7 5 -4 10 3 6
8 10 11 10 2 0 4 -4 4 -10z m2775 -63 c-7 -17 -32 -30 -45 -22 -5 3 1 16 13
30 23 25 42 20 32 -8z m-1242 17 c3 -3 1 -14 -6 -25 -9 -15 -7 -23 12 -43 41
-43 4 -39 -40 5 -24 24 -35 40 -26 36 11 -4 20 1 27 13 11 20 22 25 33 14z
m244 -36 c-3 -8 -6 -5 -6 6 -1 11 2 17 5 13 3 -3 4 -12 1 -19z m-687 -42 c0
-39 -6 -30 -13 19 -4 27 -3 35 3 25 5 -8 10 -28 10 -44z m1075 44 c3 -5 1 -10
-4 -10 -6 0 -11 5 -11 10 0 6 2 10 4 10 3 0 8 -4 11 -10z m-979 -115 c26 -23
27 -25 14 -69 -16 -56 -29 -60 -27 -6 2 46 -15 58 -23 15 l-6 -30 -7 34 c-5
22 -3 37 4 41 7 5 8 18 1 43 -6 20 -7 38 -4 42 4 3 10 -6 14 -20 4 -15 19 -37
34 -50z m564 49 c0 -8 5 -23 12 -33 16 -26 3 -51 -27 -51 -22 0 -25 -4 -25
-35 0 -28 5 -38 25 -47 18 -8 25 -19 25 -40 0 -17 -4 -27 -10 -23 -6 4 -9 14
-8 23 2 9 -5 18 -14 20 -13 2 -18 -3 -18 -18 0 -18 -3 -19 -20 -10 -11 6 -20
17 -20 24 0 7 -13 16 -29 19 -21 4 -32 15 -40 38 -11 31 -15 77 -4 52 3 -10
10 -10 25 -2 15 8 17 13 8 19 -9 5 -9 9 -1 14 6 4 14 0 17 -8 8 -21 44 -21 44
-1 0 9 -7 18 -15 21 -15 6 -22 44 -7 44 15 -1 52 -39 52 -54 0 -9 5 -16 11
-16 8 0 9 15 4 46 -4 32 -3 44 4 39 6 -3 11 -13 11 -21z m70 11 c0 -16 -9 -19
-34 -9 -25 9 -19 24 9 24 16 0 25 -6 25 -15z m200 -1 c0 -8 -4 -12 -10 -9 -5
3 -10 10 -10 16 0 5 5 9 10 9 6 0 10 -7 10 -16z m-1020 -28 c0 -19 5 -38 10
-41 6 -3 10 -15 10 -26 0 -24 15 -25 30 -1 9 14 10 11 6 -17 -3 -18 -6 -48 -6
-66 0 -21 -5 -32 -15 -32 -11 0 -15 12 -15 43 0 24 -4 45 -9 48 -14 9 -43 96
-37 111 10 27 26 15 26 -19z m485 -6 c9 -10 19 -38 22 -62 4 -39 2 -44 -23
-55 -15 -7 -35 -13 -44 -13 -9 0 -22 -6 -29 -12 -11 -11 -13 -7 -7 22 3 19 17
45 31 57 20 17 24 27 17 40 -10 19 -6 43 7 43 4 0 16 -9 26 -20z m399 -13 c-3
-9 -10 -17 -15 -17 -11 0 -12 34 -2 44 11 11 24 -9 17 -27z m253 7 c-9 -9 -28
6 -21 18 4 6 10 6 17 -1 6 -6 8 -13 4 -17z m-1017 -20 c0 -8 -4 -14 -10 -14
-5 0 -10 9 -10 21 0 11 5 17 10 14 6 -3 10 -13 10 -21z m-172 -84 c1 -45 -2
-70 -9 -70 -7 0 -9 12 -5 33 3 17 2 46 -2 62 -9 32 -5 58 7 50 5 -2 9 -36 9
-75z m616 28 c-7 -52 -28 -98 -45 -98 -12 0 -11 67 1 75 6 3 10 22 10 41 0 28
4 34 20 34 19 0 20 -4 14 -52z m341 32 c3 -5 1 -10 -4 -10 -6 0 -11 5 -11 10
0 6 2 10 4 10 3 0 8 -4 11 -10z m353 -1 c-2 -6 -8 -10 -13 -10 -5 0 -11 4 -13
10 -2 6 4 11 13 11 9 0 15 -5 13 -11z m-221 -35 c-12 -12 -37 5 -30 21 5 15 7
15 21 1 9 -9 13 -18 9 -22z m50 14 c-3 -8 -6 -5 -6 6 -1 11 2 17 5 13 3 -3 4
-12 1 -19z m-307 -18 c0 -21 -15 -27 -25 -10 -7 12 2 30 16 30 5 0 9 -9 9 -20z
m-440 -14 c0 -8 -4 -18 -10 -21 -5 -3 -10 3 -10 14 0 12 5 21 10 21 6 0 10 -6
10 -14z m-353 -58 c-3 -22 -4 -21 -11 4 -5 16 -5 36 0 45 7 16 8 15 11 -4 3
-13 3 -33 0 -45z m1220 0 c-2 -13 -4 -3 -4 22 0 25 2 35 4 23 2 -13 2 -33 0
-45z m-218 35 c9 -17 10 -17 29 0 13 12 22 15 26 8 7 -11 -3 -81 -11 -81 -14
0 -43 23 -43 34 0 8 -7 16 -15 20 -16 6 -21 36 -5 36 5 0 13 -8 19 -17z m-772
-35 c-3 -8 -6 -5 -6 6 -1 11 2 17 5 13 3 -3 4 -12 1 -19z m273 -36 c0 -21 -2
-24 -10 -12 -13 20 -13 53 0 45 6 -3 10 -18 10 -33z m157 18 c9 -13 10 -27 3
-45 -13 -34 -30 -32 -30 4 0 16 -3 36 -6 45 -9 23 19 20 33 -4z m-1287 -10 c0
-5 -5 -10 -11 -10 -5 0 -7 5 -4 10 3 6 8 10 11 10 2 0 4 -4 4 -10z m215 0 c3
-5 1 -10 -4 -10 -6 0 -11 5 -11 10 0 6 2 10 4 10 3 0 8 -4 11 -10z m875 -16
c0 -9 7 -22 17 -29 10 -8 14 -19 10 -30 -6 -13 -10 -15 -21 -6 -18 15 -26 4
-26 -34 0 -45 -11 -95 -21 -95 -4 0 -9 19 -11 42 -2 23 -9 43 -16 46 -10 3
-13 -6 -10 -34 3 -36 1 -39 -24 -42 -20 -2 -28 1 -28 12 0 8 6 16 13 19 8 2
12 24 11 67 -1 61 -1 62 13 36 20 -38 45 -30 63 22 15 42 30 56 30 26z m445
-28 c0 -39 -1 -42 -13 -25 -7 10 -10 29 -6 44 10 39 19 30 19 -19z m50 -3 l-7
-28 -13 25 c-10 18 -10 29 -3 38 17 20 32 -2 23 -35z m-396 0 c0 -25 -1 -26
-9 -8 -12 27 -12 35 0 35 6 0 10 -12 9 -27z m-449 -34 c0 -18 -5 -29 -14 -29
-18 0 -27 26 -20 56 5 20 9 22 20 13 8 -6 14 -24 14 -40z m930 10 c0 -5 -4 -9
-10 -9 -5 0 -10 7 -10 16 0 8 5 12 10 9 6 -3 10 -10 10 -16z m-524 -26 c-11
-11 -19 6 -11 24 8 17 8 17 12 0 3 -10 2 -21 -1 -24z m104 11 c0 -8 -7 -14
-15 -14 -17 0 -18 2 -9 24 7 18 24 12 24 -10z m234 4 c9 -37 7 -48 -9 -42 -9
4 -15 19 -15 35 0 34 15 38 24 7z m-154 -20 c0 -16 -3 -19 -11 -11 -6 6 -8 16
-5 22 11 17 16 13 16 -11z m100 7 c0 -8 -4 -15 -10 -15 -5 0 -10 7 -10 15 0 8
5 15 10 15 6 0 10 -7 10 -15z m-202 -28 c2 -10 -3 -17 -12 -17 -10 0 -16 9
-16 21 0 24 23 21 28 -4z m-378 -2 c0 -8 -4 -15 -9 -15 -13 0 -22 16 -14 24
11 11 23 6 23 -9z m120 -10 c0 -14 -6 -25 -13 -25 -17 0 -53 -38 -44 -46 8 -8
-36 -44 -53 -44 -6 0 -9 4 -5 9 10 18 -18 24 -30 7 -12 -15 -13 -15 -19 0 -10
25 -7 62 3 46 6 -10 10 -9 14 7 7 27 23 27 37 1 13 -24 40 -27 40 -5 0 22 41
75 57 75 7 0 13 -11 13 -25z m-770 11 c0 -3 -4 -8 -10 -11 -5 -3 -10 -1 -10 4
0 6 5 11 10 11 6 0 10 -2 10 -4z m1330 -21 c0 -8 -4 -15 -10 -15 -5 0 -10 7
-10 15 0 8 5 15 10 15 6 0 10 -7 10 -15z m-1400 -21 c0 -8 -4 -14 -10 -14 -5
0 -10 9 -10 21 0 11 5 17 10 14 6 -3 10 -13 10 -21z m430 16 c0 -5 -2 -10 -4
-10 -3 0 -8 5 -11 10 -3 6 -1 10 4 10 6 0 11 -4 11 -10z m180 6 c0 -3 -4 -8
-10 -11 -5 -3 -10 -1 -10 4 0 6 5 11 10 11 6 0 10 -2 10 -4z m700 -5 c0 -17
-12 -41 -21 -41 -10 0 -12 33 -2 43 9 10 23 9 23 -2z m377 -28 c-3 -10 -5 -4
-5 12 0 17 2 24 5 18 2 -7 2 -21 0 -30z m-1050 -20 c-3 -10 -5 -2 -5 17 0 19
2 27 5 18 2 -10 2 -26 0 -35z m409 38 c-4 -5 -2 -21 4 -35 11 -29 6 -33 -16
-12 -17 18 -18 28 -2 44 14 14 21 16 14 3z m-609 -33 c-3 -8 -6 -5 -6 6 -1 11
2 17 5 13 3 -3 4 -12 1 -19z m543 8 c0 -8 -4 -17 -9 -21 -12 -7 -24 12 -16 25
9 15 25 12 25 -4z m-613 -18 c-3 -8 -6 -5 -6 6 -1 11 2 17 5 13 3 -3 4 -12 1
-19z m-16 -55 c-10 -17 -10 -16 -11 3 0 23 13 41 18 25 2 -6 -1 -18 -7 -28z
m79 28 c0 -5 -7 -11 -14 -14 -10 -4 -13 -1 -9 9 6 15 23 19 23 5z m500 -23
c-1 -28 -2 -30 -11 -15 -6 10 -8 25 -5 33 9 24 16 16 16 -18z m-250 -27 c0 -6
-4 -13 -10 -16 -5 -3 -10 1 -10 9 0 9 5 16 10 16 6 0 10 -4 10 -9z m560 -10
c0 -19 -17 -38 -25 -29 -7 7 7 48 16 48 5 0 9 -9 9 -19z m-273 -54 c-2 -7 2
-19 9 -27 7 -9 10 -21 5 -28 -5 -9 -16 -1 -34 25 -24 34 -25 38 -9 44 21 8 35
1 29 -14z m-1050 -9 c-3 -8 -6 -5 -6 6 -1 11 2 17 5 13 3 -3 4 -12 1 -19z
m1203 0 c0 -16 -3 -19 -11 -11 -6 6 -8 16 -5 22 11 17 16 13 16 -11z m-350
-28 c0 -11 -4 -20 -10 -20 -5 0 -10 9 -10 20 0 11 5 20 10 20 6 0 10 -9 10
-20z m-498 -24 c3 -24 0 -32 -9 -29 -14 6 -16 22 -7 47 9 23 11 20 16 -18z
m158 -6 c0 -22 -4 -40 -10 -40 -11 0 -14 63 -3 73 11 12 13 8 13 -33z m-100
-34 c-7 -7 -10 1 -9 25 0 32 1 33 10 10 6 -16 6 -28 -1 -35z m590 24 c0 -5 -2
-10 -4 -10 -3 0 -8 5 -11 10 -3 6 -1 10 4 10 6 0 11 -4 11 -10z m-1487 -25
c13 -9 17 -20 12 -34 -4 -12 -2 -21 4 -21 6 0 11 -7 11 -15 0 -8 6 -12 14 -9
9 3 16 -5 21 -23 3 -15 12 -31 18 -35 6 -4 8 -10 4 -14 -3 -4 -13 -1 -21 5
-11 9 -16 9 -21 0 -4 -6 -1 -15 6 -20 7 -4 10 -11 7 -15 -8 -7 -38 20 -38 34
0 6 7 13 17 16 14 6 11 11 -15 37 -18 17 -32 36 -32 43 0 6 -7 23 -14 39 -17
30 -4 36 27 12z m1357 5 c0 -5 -4 -10 -10 -10 -5 0 -10 5 -10 10 0 6 5 10 10
10 6 0 10 -4 10 -10z m-196 -45 c-4 -17 -10 -23 -16 -17 -6 6 -5 17 3 30 17
27 22 22 13 -13z m92 12 c12 4 15 1 12 -13 -2 -11 -12 -19 -23 -19 -15 0 -21
8 -23 30 -2 25 -1 27 8 13 6 -10 17 -15 26 -11z m-376 -43 c0 -8 -4 -14 -10
-14 -5 0 -10 9 -10 21 0 11 5 17 10 14 6 -3 10 -13 10 -21z m63 11 c4 -8 2
-17 -3 -20 -6 -4 -10 3 -10 14 0 25 6 27 13 6z m447 -6 c0 -6 -4 -7 -10 -4 -5
3 -10 11 -10 16 0 6 5 7 10 4 6 -3 10 -11 10 -16z m2625 11 c3 -5 1 -10 -4
-10 -6 0 -11 5 -11 10 0 6 2 10 4 10 3 0 8 -4 11 -10z m-3625 -36 c0 -8 -4
-12 -10 -9 -5 3 -10 10 -10 16 0 5 5 9 10 9 6 0 10 -7 10 -16z m3610 -8 c0 -3
-4 -8 -10 -11 -5 -3 -10 -1 -10 4 0 6 5 11 10 11 6 0 10 -2 10 -4z m51 -29
c-6 -8 -9 -17 -6 -21 3 -3 0 -2 -6 3 -12 10 -4 31 13 31 7 0 7 -4 -1 -13z
m-2676 -7 c3 -5 1 -10 -4 -10 -6 0 -11 5 -11 10 0 6 2 10 4 10 3 0 8 -4 11
-10z m-1355 -45 c9 -10 9 -15 1 -15 -6 0 -11 5 -11 10 0 6 -7 10 -15 10 -18 0
-19 -11 -2 -29 10 -11 7 -12 -16 -7 -20 5 -29 2 -33 -9 -7 -16 -34 -21 -34 -5
0 11 70 60 86 60 6 0 17 -7 24 -15z m330 -85 c0 -5 -4 -10 -10 -10 -5 0 -10 5
-10 10 0 6 5 10 10 10 6 0 10 -4 10 -10z m110 1 c0 -5 -13 -12 -30 -16 -16 -4
-30 -11 -30 -17 0 -6 -11 -8 -25 -6 -14 3 -25 1 -25 -3 0 -5 -4 -9 -10 -9 -21
0 4 29 31 35 16 4 31 11 34 16 8 12 55 12 55 0z m665 -10 c3 -5 1 -12 -5 -16
-5 -3 -10 1 -10 9 0 18 6 21 15 7z m125 -1 c0 -5 -5 -10 -11 -10 -5 0 -7 5 -4
10 3 6 8 10 11 10 2 0 4 -4 4 -10z m466 -57 c16 -6 19 -33 4 -33 -5 0 -10 5
-10 10 0 6 -7 10 -15 10 -8 0 -15 -7 -15 -15 0 -8 -6 -12 -14 -9 -16 6 -31
-29 -21 -46 3 -5 2 -10 -3 -10 -14 0 -23 43 -16 79 6 26 10 30 30 25 15 -4 24
-2 24 5 0 6 -7 11 -16 11 -12 0 -11 5 7 19 l24 19 3 -29 c2 -17 10 -33 18 -36z
m309 48 c-4 -12 0 -21 11 -25 16 -6 15 -8 -1 -26 -9 -10 -22 -17 -28 -15 -22
8 -49 -22 -42 -44 7 -24 -7 -28 -24 -7 -10 12 -9 20 4 40 13 19 14 29 6 45
-13 24 -14 31 -2 31 5 0 13 -9 16 -20 8 -25 25 -26 25 -2 0 19 18 42 33 42 4
0 6 -8 2 -19z m135 -12 c0 -6 -4 -7 -10 -4 -5 3 -10 11 -10 16 0 6 5 7 10 4 6
-3 10 -11 10 -16z m565 1 c3 -5 1 -10 -4 -10 -6 0 -11 5 -11 10 0 6 2 10 4 10
3 0 8 -4 11 -10z m-2415 -30 c0 -11 -7 -20 -15 -20 -15 0 -21 21 -8 33 12 13
23 7 23 -13z m3873 5 c-3 -9 -8 -14 -10 -11 -3 3 -2 9 2 15 9 16 15 13 8 -4z
m-1963 -4 c0 -37 -15 -71 -30 -71 -10 0 -20 -6 -23 -12 -3 -10 -9 -10 -27 0
-12 7 -25 11 -28 8 -3 -3 0 -6 6 -6 7 0 12 -7 12 -15 0 -16 -24 -16 -54 2 -20
11 -14 33 10 33 8 0 22 4 32 9 9 5 32 16 50 23 17 7 32 19 32 25 0 7 5 13 10
13 6 0 10 -4 10 -9z m-323 -33 c9 23 25 12 19 -12 -5 -19 0 -29 16 -40 12 -9
19 -19 15 -22 -4 -4 1 -16 10 -27 17 -18 17 -20 -7 -39 -31 -25 -14 -38 51
-38 26 0 51 -6 57 -13 9 -10 -3 -11 -61 -6 -39 3 -73 12 -75 18 -2 6 -14 8
-28 5 -31 -8 -30 -1 4 37 29 34 34 50 15 57 -7 2 -13 -3 -13 -12 0 -18 -2 -19
-24 -10 -23 9 -20 31 5 39 20 7 20 7 -5 40 -32 41 -34 55 -5 29 16 -14 23 -15
26 -6z m2333 8 c0 -3 -4 -8 -10 -11 -5 -3 -10 -1 -10 4 0 6 5 11 10 11 6 0 10
-2 10 -4z m53 -40 c3 3 3 -5 -1 -18 -5 -18 -7 -19 -10 -5 -2 9 -8 15 -13 12
-5 -4 -9 1 -9 10 0 10 -5 13 -12 9 -7 -5 -8 -3 -4 5 6 9 12 9 25 -3 10 -9 20
-13 24 -10z m-2580 -40 c3 3 3 -3 0 -15 -3 -12 -13 -21 -24 -21 -11 0 -19 -4
-19 -10 0 -5 -6 -10 -14 -10 -8 0 -17 -8 -20 -17 -5 -12 -10 -13 -18 -5 -13
13 6 42 28 42 8 0 14 6 14 13 0 21 22 38 35 27 7 -5 14 -7 18 -4z m307 -1 c0
-8 -7 -15 -15 -15 -8 0 -15 7 -15 15 0 8 7 15 15 15 8 0 15 -7 15 -15z m120
-35 c0 -5 -2 -10 -4 -10 -3 0 -8 5 -11 10 -3 6 -1 10 4 10 6 0 11 -4 11 -10z
m133 -17 c-7 -2 -19 -2 -25 0 -7 3 -2 5 12 5 14 0 19 -2 13 -5z m137 -2 c0 -6
-5 -13 -10 -16 -15 -9 -43 3 -35 15 8 13 45 13 45 1z m-710 -5 c0 -3 -4 -8
-10 -11 -5 -3 -10 -1 -10 4 0 6 5 11 10 11 6 0 10 -2 10 -4z m420 -5 c0 -5
-26 -12 -57 -16 -99 -11 -109 -10 -94 8 13 16 151 22 151 8z m50 0 c0 -12 -20
-25 -27 -18 -7 7 6 27 18 27 5 0 9 -4 9 -9z m-646 -49 c-11 -16 -19 -22 -22
-14 -2 7 4 25 14 40 11 16 19 22 22 14 2 -7 -4 -25 -14 -40z m2880 37 c3 -3
-4 -5 -14 -6 -11 -1 -20 2 -20 7 0 8 25 8 34 -1z m-2790 -15 c5 -13 9 -14 21
-4 8 7 15 9 15 5 0 -13 -54 -55 -72 -55 -9 0 -23 -3 -32 -6 -9 -3 -16 -1 -16
4 0 13 38 27 65 24 19 -2 19 -2 3 11 -10 8 -18 19 -18 26 0 17 27 13 34 -5z
m210 -33 c15 -17 15 -19 0 -32 -15 -12 -16 -11 -10 9 6 18 4 22 -14 22 -12 0
-18 5 -15 10 9 15 20 12 39 -9z m376 -11 c0 -5 -20 -10 -44 -10 -25 0 -48 5
-51 10 -4 6 13 10 44 10 28 0 51 -4 51 -10z m37 4 c-3 -3 -12 -4 -19 -1 -8 3
-5 6 6 6 11 1 17 -2 13 -5z m-757 -85 c0 -5 -10 -9 -21 -9 -18 0 -19 2 -9 15
12 15 30 12 30 -6z m3083 -76 c-4 -11 -3 -14 5 -9 7 4 12 3 12 -3 0 -15 -18
-23 -25 -11 -7 11 0 40 9 40 3 0 2 -7 -1 -17z m302 -313 c3 -5 4 -14 0 -20 -8
-13 -32 -2 -32 15 0 17 23 20 32 5z m534 -633 c8 -10 7 -14 -4 -14 -8 0 -15 6
-15 14 0 7 2 13 4 13 2 0 9 -6 15 -13z"/>
<path d="M4386 8464 c-8 -20 0 -32 14 -18 5 5 5 15 1 22 -6 11 -10 10 -15 -4z"/>
<path d="M4321 8432 c-6 -12 -17 -19 -25 -16 -23 9 -30 -15 -42 -131 -16 -153
-1 -169 80 -85 27 28 52 50 57 50 15 0 10 -30 -6 -36 -22 -9 -18 -24 5 -24 11
0 20 6 20 14 0 7 7 19 15 26 8 7 15 22 15 33 0 16 -3 18 -12 9 -16 -16 -28
-15 -28 3 0 8 5 15 10 15 6 0 10 8 10 18 0 13 -2 14 -9 3 -13 -20 -24 4 -16
37 4 22 -1 36 -28 67 -33 38 -34 39 -46 17z"/>
<path d="M5553 8243 c-17 -16 -40 -45 -51 -65 l-21 -37 35 -31 c41 -36 63 -38
91 -7 25 26 53 91 53 121 0 52 -58 62 -107 19z"/>
<path d="M4590 7450 c0 -5 5 -10 10 -10 6 0 10 5 10 10 0 6 -4 10 -10 10 -5 0
-10 -4 -10 -10z"/>
<path d="M5120 7250 c-13 -9 -12 -12 4 -25 23 -17 42 -5 33 19 -7 18 -16 20
-37 6z"/>
<path d="M4975 7231 c-3 -5 -1 -12 5 -16 5 -3 10 1 10 9 0 18 -6 21 -15 7z"/>
<path d="M4920 7095 c-7 -8 -9 -15 -4 -15 5 -1 -4 -12 -21 -25 -22 -18 -27
-27 -18 -36 8 -8 16 -7 30 1 16 10 27 8 63 -9 53 -25 50 -25 50 -2 0 13 -7 19
-27 19 -33 0 -56 28 -43 52 16 29 -8 41 -30 15z"/>
<path d="M4831 7071 c-16 -10 -6 -31 15 -31 8 0 14 9 14 20 0 22 -7 25 -29 11z"/>
<path d="M4880 6966 c0 -9 5 -16 10 -16 6 0 10 4 10 9 0 6 -4 13 -10 16 -5 3
-10 -1 -10 -9z"/>
<path d="M4955 6960 c-3 -5 -15 -10 -26 -10 -10 0 -19 -7 -19 -15 0 -21 26
-19 50 5 11 11 20 22 20 25 0 9 -19 5 -25 -5z"/>
<path d="M5000 6925 c0 -8 4 -15 9 -15 5 0 17 -3 26 -7 16 -5 15 -4 -1 15 -22
26 -34 28 -34 7z"/>
<path d="M4884 6864 c3 -9 6 -18 6 -20 0 -8 49 -4 55 5 6 11 -26 31 -50 31
-12 0 -15 -5 -11 -16z"/>
<path d="M4970 6840 c0 -5 5 -10 11 -10 5 0 7 5 4 10 -3 6 -8 10 -11 10 -2 0
-4 -4 -4 -10z"/>
<path d="M5077 6753 c-2 -5 -1 -19 3 -33 l6 -25 13 23 c12 22 8 42 -9 42 -5 0
-11 -3 -13 -7z"/>
<path d="M5007 6724 c-3 -3 -1 -15 6 -25 9 -15 8 -25 -6 -49 -18 -29 -18 -30
2 -30 12 0 21 5 21 10 0 6 9 20 20 32 l20 22 -22 23 c-22 24 -30 27 -41 17z"/>
<path d="M4864 6688 c3 -13 6 -29 6 -35 0 -7 7 -13 15 -13 16 0 18 12 9 48 -4
12 -13 22 -21 22 -11 0 -14 -6 -9 -22z"/>
<path d="M4873 6571 c-13 -35 4 -60 25 -39 15 15 15 30 -1 51 -11 16 -13 15
-24 -12z"/>
<path d="M5072 6458 c5 -15 28 -18 29 -3 0 6 -7 12 -17 13 -10 3 -15 -1 -12
-10z"/>
<path d="M5031 6434 c0 -11 3 -14 6 -6 3 7 2 16 -1 19 -3 4 -6 -2 -5 -13z"/>
<path d="M6290 1907 c0 -32 7 -37 43 -30 30 6 36 28 10 36 -10 2 -26 8 -35 12
-14 6 -18 2 -18 -18z"/>
<path d="M6382 1833 c-10 -4 -10 -8 -1 -19 15 -18 29 -18 29 0 0 18 -11 25
-28 19z"/>
<path d="M6440 1791 c0 -6 5 -13 10 -16 6 -3 10 1 10 9 0 9 -4 16 -10 16 -5 0
-10 -4 -10 -9z"/>
<path d="M6355 1630 c3 -5 10 -10 16 -10 5 0 9 5 9 10 0 6 -7 10 -16 10 -8 0
-12 -4 -9 -10z"/>
<path d="M5326 2534 c-9 -23 -8 -24 14 -24 13 0 20 7 20 20 0 24 -25 27 -34 4z"/>
<path d="M650 9840 c0 -5 5 -10 11 -10 5 0 7 5 4 10 -3 6 -8 10 -11 10 -2 0
-4 -4 -4 -10z"/>
<path d="M710 9798 c0 -4 4 -8 9 -8 6 0 12 4 15 8 3 5 -1 9 -9 9 -8 0 -15 -4
-15 -9z"/>
<path d="M803 9709 c-2 -23 3 -25 10 -4 4 8 3 16 -1 19 -4 3 -9 -4 -9 -15z"/>
<path d="M1112 9365 c4 -4 0 -13 -9 -20 -13 -9 -13 -14 -3 -20 9 -6 11 -4 5 5
-6 10 -4 12 8 7 20 -8 24 18 5 29 -7 4 -10 4 -6 -1z"/>
<path d="M1455 8920 c3 -5 8 -10 11 -10 2 0 4 5 4 10 0 6 -5 10 -11 10 -5 0
-7 -4 -4 -10z"/>
<path d="M1634 8745 c2 -33 16 -44 16 -12 0 14 -4 28 -8 31 -5 3 -8 -6 -8 -19z"/>
<path d="M1732 8601 c7 -11 15 -18 18 -16 4 2 20 -3 36 -10 l29 -15 -29 24
c-17 14 -33 23 -38 20 -4 -3 -8 0 -8 5 0 6 -5 11 -10 11 -6 0 -5 -8 2 -19z"/>
<path d="M2171 8133 c-1 -16 5 -23 17 -23 10 0 13 3 6 8 -6 4 -14 14 -17 22
-4 10 -6 8 -6 -7z"/>
<path d="M2308 7983 c7 -3 16 -2 19 1 4 3 -2 6 -13 5 -11 0 -14 -3 -6 -6z"/>
<path d="M2386 7855 c4 -8 10 -15 15 -15 5 0 9 7 9 15 0 8 -7 15 -15 15 -9 0
-12 -6 -9 -15z"/>
<path d="M2475 7770 c3 -5 8 -10 11 -10 2 0 4 5 4 10 0 6 -5 10 -11 10 -5 0
-7 -4 -4 -10z"/>
<path d="M2565 7679 c-4 -6 -5 -12 -2 -15 2 -3 7 2 10 11 7 17 1 20 -8 4z"/>
<path d="M2645 7560 c3 -5 8 -10 11 -10 2 0 4 5 4 10 0 6 -5 10 -11 10 -5 0
-7 -4 -4 -10z"/>
<path d="M2680 7531 c0 -6 5 -13 10 -16 6 -3 10 1 10 9 0 9 -4 16 -10 16 -5 0
-10 -4 -10 -9z"/>
<path d="M3200 6960 c0 -5 5 -10 11 -10 5 0 7 5 4 10 -3 6 -8 10 -11 10 -2 0
-4 -4 -4 -10z"/>
<path d="M7436 2132 c-3 -4 4 -9 15 -9 23 -2 25 3 4 10 -8 4 -16 3 -19 -1z"/>
<path d="M7690 1840 c0 -5 5 -10 11 -10 5 0 7 5 4 10 -3 6 -8 10 -11 10 -2 0
-4 -4 -4 -10z"/>
<path d="M7780 1741 c0 -6 4 -12 8 -15 5 -3 9 1 9 9 0 8 -4 15 -9 15 -4 0 -8
-4 -8 -9z"/>
<path d="M8245 1200 c-3 -6 1 -7 9 -4 18 7 21 14 7 14 -6 0 -13 -4 -16 -10z"/>
<path d="M8274 1178 c3 -15 26 -23 26 -8 0 6 -4 9 -9 6 -5 -4 -12 -1 -14 4 -3
6 -4 5 -3 -2z"/>
<path d="M8280 1139 c0 -11 27 -12 34 -1 2 4 -4 9 -15 9 -10 1 -19 -2 -19 -8z"/>
<path d="M8320 1099 c0 -5 5 -7 10 -4 6 3 10 8 10 11 0 2 -4 4 -10 4 -5 0 -10
-5 -10 -11z"/>
<path d="M8367 1083 c-4 -3 -7 -11 -7 -17 0 -6 5 -5 12 2 6 6 9 14 7 17 -3 3
-9 2 -12 -2z"/>
<path d="M8533 869 c-2 -22 12 -25 20 -5 3 8 0 16 -7 19 -6 3 -13 -4 -13 -14z"/>
<path d="M8859 507 c6 -8 9 -16 6 -19 -3 -3 1 -11 10 -18 12 -10 15 -10 15 3
0 9 -7 23 -16 31 -19 19 -31 21 -15 3z"/>
<path d="M9013 345 c0 -8 4 -12 9 -9 5 3 6 10 3 15 -9 13 -12 11 -12 -6z"/>
<path d="M9100 225 c-10 -12 -10 -15 2 -15 8 0 15 7 15 15 0 8 -1 15 -2 15 -2
0 -8 -7 -15 -15z"/>
</g>
</svg>
